<svg xmlns="http://www.w3.org/2000/svg" width="100%" height="100%" version="1.1" viewBox="0 0 16 16"><path fill="none" stroke="none" d="M0 0H16V16H0z" visibility="hidden"/><path fill="#1a1a1a" fill-opacity="1" stroke="none" d="M 4,1 C 4.944406,3.8332196 3.233819,7.4334035 7.25,7.938 l 0,5.562 C 7.25,12.033993 4.997226,9 2,9 c 3,2 1,6 5,6 2,0 0,0 2,0 4,0 2,-4 5,-6 -2.997226,0 -5.25,2.944994 -5.25,4.5 l 0,-5.562 C 12.753428,7.4504075 11.055593,3.8332196 12,1 11,1 9.75,4 9.75,4 9.75,4 9,2 8,1 7,2 6.25,4 6.25,4 6.25,4 5,1 4,1 z"/></svg>